# xmcd
#
# Track frame offsets: 
#        150
#        5839
#        28349
#        42403
#        67124
#        98878
#        125329
#        158233
#        177147
#        196282
#        226676
#        259292
#        287978
#        313288
#
# Disc length: 4540 seconds
#
# Revision: 0
# Processed by: cddbd v1.5.2PL0 Copyright (c) Steve Scherf et al.
# Submitted via: ExactAudioCopy v0.95b4
#
DISCID=ce11ba0e
DTITLE=Various Artist - Underwater Episode 5 CD1 Mixed by Darren Emerson
DYEAR=2006
DGENRE=House
TTITLE0=Darren Emerson - Intro
TTITLE1=Beckster - Howyadoin
TTITLE2=Ynau - Tribute To Mark Spoon
TTITLE3=Onionz - Burnin' (Original)
TTITLE4=The Wiggs - Mars
TTITLE5=D.Ramirez and Dmitry Bobrov - Pleasure Me
TTITLE6=Oded Peled and Introvert - Hypnolove
TTITLE7=Joel Mull - For Me
TTITLE8=DNA Orchestra - Samurai (Paul Jackson Ronin Mix)
TTITLE9=D Ramirez and James Mowbray - I Choose Anger (Original Mix)
TTITLE10=D. Ramirez - La Discotek
TTITLE11=Chelonis R.Jones - Deer In The Headlights (DJ Hell Mix)
TTITLE12=Ynau - Saviours In On Out Tonight
TTITLE13=Darko Esser and Benny Rodrigues - Paradox
EXTD=
EXTT0=
EXTT1=
EXTT2=
EXTT3=
EXTT4=
EXTT5=
EXTT6=
EXTT7=
EXTT8=
EXTT9=
EXTT10=
EXTT11=
EXTT12=
EXTT13=
PLAYORDER=
